<mxfile host="app.diagrams.net" agent="Mozilla/5.0 (Windows NT 10.0; Win64; x64) AppleWebKit/537.36 (KHTML, like Gecko) Chrome/128.0.0.0 Safari/537.36" version="24.7.17">
  <diagram name="Page-1" id="ZbD-A7FkkJcu_JD2XWU1">
    <mxGraphModel dx="1434" dy="892" grid="1" gridSize="10" guides="1" tooltips="1" connect="1" arrows="1" fold="1" page="1" pageScale="1" pageWidth="827" pageHeight="1169" math="0" shadow="0">
      <root>
        <mxCell id="0" />
        <mxCell id="1" parent="0" />
        <mxCell id="2EwlFNQMndgGmQ2C2Vad-11" value="&lt;h1 style=&quot;margin: 0px auto 12px; padding: 0px; break-after: avoid; font-variant-numeric: normal; font-variant-east-asian: normal; font-variant-alternates: normal; font-size-adjust: none; font-kerning: auto; font-optical-sizing: auto; font-feature-settings: normal; font-variation-settings: normal; font-variant-position: normal; font-stretch: normal; font-size: 32px; line-height: 40px; font-family: BlinkMacSystemFont, -apple-system, &amp;quot;Segoe UI&amp;quot;, Roboto, Helvetica, Arial, sans-serif; color: rgb(49, 49, 48); text-align: start; background-color: rgb(255, 255, 255);&quot; class=&quot;main__header-title&quot;&gt;The modern mode, &quot;use strict&quot;&lt;/h1&gt;" style="swimlane;childLayout=stackLayout;horizontal=1;startSize=50;horizontalStack=0;rounded=1;fontSize=14;fontStyle=0;strokeWidth=2;resizeParent=0;resizeLast=1;shadow=0;dashed=0;align=center;arcSize=4;whiteSpace=wrap;html=1;" vertex="1" parent="1">
          <mxGeometry x="170" y="100" width="560" height="330" as="geometry">
            <mxRectangle x="170" y="100" width="500" height="70" as="alternateBounds" />
          </mxGeometry>
        </mxCell>
        <mxCell id="2EwlFNQMndgGmQ2C2Vad-12" value="&lt;span style=&quot;color: rgb(49, 49, 48); font-family: BlinkMacSystemFont, -apple-system, &amp;quot;Segoe UI&amp;quot;, Roboto, Helvetica, Arial, sans-serif; font-size: 16px; text-wrap: wrap; background-color: rgb(255, 255, 255);&quot;&gt;The directive looks like a string:&amp;nbsp;&lt;/span&gt;&lt;code style=&quot;font-family: Consolas, &amp;quot;Lucida Console&amp;quot;, Menlo, Monaco, monospace; padding: 2px 4px; background: var(--prismBlockBg); border-radius: 2px; color: var(--foregroundAlt); font-size: 16px; text-wrap: wrap;&quot;&gt;&quot;use strict&quot;&lt;/code&gt;&lt;span style=&quot;color: rgb(49, 49, 48); font-family: BlinkMacSystemFont, -apple-system, &amp;quot;Segoe UI&amp;quot;, Roboto, Helvetica, Arial, sans-serif; font-size: 16px; text-wrap: wrap; background-color: rgb(255, 255, 255);&quot;&gt;&amp;nbsp;or&amp;nbsp;&lt;/span&gt;&lt;code style=&quot;font-family: Consolas, &amp;quot;Lucida Console&amp;quot;, Menlo, Monaco, monospace; padding: 2px 4px; background: var(--prismBlockBg); border-radius: 2px; color: var(--foregroundAlt); font-size: 16px; text-wrap: wrap;&quot;&gt;&#39;use strict&#39;&lt;/code&gt;&lt;span style=&quot;color: rgb(49, 49, 48); font-family: BlinkMacSystemFont, -apple-system, &amp;quot;Segoe UI&amp;quot;, Roboto, Helvetica, Arial, sans-serif; font-size: 16px; text-wrap: wrap; background-color: rgb(255, 255, 255);&quot;&gt;.&amp;nbsp;&lt;/span&gt;&lt;div&gt;&lt;span style=&quot;color: rgb(49, 49, 48); font-family: BlinkMacSystemFont, -apple-system, &amp;quot;Segoe UI&amp;quot;, Roboto, Helvetica, Arial, sans-serif; font-size: 16px; text-wrap: wrap; background-color: rgb(255, 255, 255);&quot;&gt;When it is located at the top of a script, the whole script works&lt;/span&gt;&lt;/div&gt;&lt;div&gt;&lt;span style=&quot;color: rgb(49, 49, 48); font-family: BlinkMacSystemFont, -apple-system, &amp;quot;Segoe UI&amp;quot;, Roboto, Helvetica, Arial, sans-serif; font-size: 16px; text-wrap: wrap; background-color: rgb(255, 255, 255);&quot;&gt;&amp;nbsp;the “modern” way.&lt;br&gt;&lt;br&gt;&lt;/span&gt;&lt;code style=&quot;font-family: Consolas, &amp;quot;Lucida Console&amp;quot;, Menlo, Monaco, monospace; padding: 2px 4px; background: var(--prismBlockBg); border-radius: 2px; color: var(--foregroundAlt); font-size: 16px; text-wrap: wrap;&quot;&gt;&quot;use strict&quot;&lt;/code&gt;&lt;span style=&quot;color: rgb(49, 49, 48); font-family: BlinkMacSystemFont, -apple-system, &amp;quot;Segoe UI&amp;quot;, Roboto, Helvetica, Arial, sans-serif; font-size: 16px; text-wrap: wrap; background-color: rgb(255, 255, 255);&quot;&gt;&amp;nbsp;can be put at the beginning of a function.&amp;nbsp;&lt;/span&gt;&lt;/div&gt;&lt;div&gt;&lt;span style=&quot;color: rgb(49, 49, 48); font-family: BlinkMacSystemFont, -apple-system, &amp;quot;Segoe UI&amp;quot;, Roboto, Helvetica, Arial, sans-serif; font-size: 16px; text-wrap: wrap; background-color: rgb(255, 255, 255);&quot;&gt;Doing that enables strict mode in that function only.&amp;nbsp;&lt;/span&gt;&lt;span style=&quot;color: rgb(49, 49, 48); font-family: BlinkMacSystemFont, -apple-system, &amp;quot;Segoe UI&amp;quot;, Roboto, Helvetica, Arial, sans-serif; font-size: 16px; text-wrap: wrap; background-color: rgb(255, 255, 255);&quot;&gt;&lt;br&gt;&lt;/span&gt;&lt;/div&gt;&lt;div&gt;&lt;span style=&quot;color: rgb(49, 49, 48); font-family: BlinkMacSystemFont, -apple-system, &amp;quot;Segoe UI&amp;quot;, Roboto, Helvetica, Arial, sans-serif; font-size: 16px; text-wrap: wrap; background-color: rgb(255, 255, 255);&quot;&gt;&lt;br&gt;&lt;/span&gt;&lt;/div&gt;&lt;div&gt;&lt;span style=&quot;color: rgb(49, 49, 48); font-family: BlinkMacSystemFont, -apple-system, &amp;quot;Segoe UI&amp;quot;, Roboto, Helvetica, Arial, sans-serif; font-size: 16px; font-weight: 700; text-wrap: wrap; background-color: rgb(255, 255, 255);&quot;&gt;There’s no way to cancel&amp;nbsp;&lt;/span&gt;&lt;code style=&quot;font-family: Consolas, &amp;quot;Lucida Console&amp;quot;, Menlo, Monaco, monospace; padding: 2px 4px; background: var(--prismBlockBg); border-radius: 2px; color: var(--foregroundAlt); font-size: 16px; font-weight: 700; text-wrap: wrap;&quot;&gt;use strict&lt;/code&gt;&lt;span style=&quot;color: rgb(49, 49, 48); font-family: BlinkMacSystemFont, -apple-system, &amp;quot;Segoe UI&amp;quot;, Roboto, Helvetica, Arial, sans-serif; font-size: 16px; text-wrap: wrap; background-color: rgb(255, 255, 255);&quot;&gt;&lt;br&gt;&lt;/span&gt;&lt;/div&gt;&lt;div&gt;&lt;code style=&quot;font-family: Consolas, &amp;quot;Lucida Console&amp;quot;, Menlo, Monaco, monospace; padding: 2px 4px; background: var(--prismBlockBg); border-radius: 2px; color: var(--foregroundAlt); font-size: 16px; font-weight: 700; text-wrap: wrap;&quot;&gt;&lt;span style=&quot;color: rgb(49, 49, 48); font-family: BlinkMacSystemFont, -apple-system, &amp;quot;Segoe UI&amp;quot;, Roboto, Helvetica, Arial, sans-serif; font-weight: 400; background-color: rgb(255, 255, 255);&quot;&gt;Once we enter strict mode, there’s no going back.&lt;/span&gt;&lt;br&gt;&lt;/code&gt;&lt;/div&gt;&lt;div&gt;&lt;code style=&quot;font-family: Consolas, &amp;quot;Lucida Console&amp;quot;, Menlo, Monaco, monospace; padding: 2px 4px; background: var(--prismBlockBg); border-radius: 2px; color: var(--foregroundAlt); font-size: 16px; font-weight: 700; text-wrap: wrap;&quot;&gt;&lt;span style=&quot;color: rgb(49, 49, 48); font-family: BlinkMacSystemFont, -apple-system, &amp;quot;Segoe UI&amp;quot;, Roboto, Helvetica, Arial, sans-serif; font-weight: 400; background-color: rgb(255, 255, 255);&quot;&gt;&lt;br&gt;&lt;/span&gt;&lt;/code&gt;&lt;/div&gt;&lt;div&gt;&lt;code style=&quot;font-family: Consolas, &amp;quot;Lucida Console&amp;quot;, Menlo, Monaco, monospace; padding: 2px 4px; background: var(--prismBlockBg); border-radius: 2px; color: var(--foregroundAlt); font-size: 16px; font-weight: 700; text-wrap: wrap;&quot;&gt;&lt;span style=&quot;color: rgb(49, 49, 48); font-family: BlinkMacSystemFont, -apple-system, &amp;quot;Segoe UI&amp;quot;, Roboto, Helvetica, Arial, sans-serif; font-weight: 400; background-color: rgb(255, 255, 255);&quot;&gt;Modern JavaScript supports “classes” and “modules” –&amp;nbsp;&lt;/span&gt;&lt;/code&gt;&lt;/div&gt;&lt;div&gt;&lt;code style=&quot;font-family: Consolas, &amp;quot;Lucida Console&amp;quot;, Menlo, Monaco, monospace; padding: 2px 4px; background: var(--prismBlockBg); border-radius: 2px; color: var(--foregroundAlt); font-size: 16px; font-weight: 700; text-wrap: wrap;&quot;&gt;&lt;span style=&quot;color: rgb(49, 49, 48); font-family: BlinkMacSystemFont, -apple-system, &amp;quot;Segoe UI&amp;quot;, Roboto, Helvetica, Arial, sans-serif; font-weight: 400; background-color: rgb(255, 255, 255);&quot;&gt;advanced language structures -&lt;/span&gt;&lt;span style=&quot;font-weight: normal; color: rgb(49, 49, 48); font-family: BlinkMacSystemFont, -apple-system, &amp;quot;Segoe UI&amp;quot;, Roboto, Helvetica, Arial, sans-serif; background-color: rgb(255, 255, 255);&quot;&gt;that enable&amp;nbsp;&lt;/span&gt;&lt;code style=&quot;background: var(--prismBlockBg); color: var(--foregroundAlt); font-weight: normal; font-family: Consolas, &amp;quot;Lucida Console&amp;quot;, Menlo, Monaco, monospace; padding: 2px 4px; border-radius: 2px;&quot;&gt;use strict&lt;/code&gt;&lt;span style=&quot;font-weight: normal; color: rgb(49, 49, 48); font-family: BlinkMacSystemFont, -apple-system, &amp;quot;Segoe UI&amp;quot;, Roboto, Helvetica, Arial, sans-serif; background-color: rgb(255, 255, 255);&quot;&gt;&amp;nbsp;automatically.&amp;nbsp;&lt;/span&gt;&lt;span style=&quot;color: rgb(49, 49, 48); font-family: BlinkMacSystemFont, -apple-system, &amp;quot;Segoe UI&amp;quot;, Roboto, Helvetica, Arial, sans-serif; font-weight: 400; background-color: rgb(255, 255, 255);&quot;&gt;&lt;br&gt;&lt;/span&gt;&lt;/code&gt;&lt;/div&gt;" style="align=left;strokeColor=none;fillColor=none;spacingLeft=4;fontSize=12;verticalAlign=top;resizable=0;rotatable=0;part=1;html=1;" vertex="1" parent="2EwlFNQMndgGmQ2C2Vad-11">
          <mxGeometry y="50" width="560" height="280" as="geometry" />
        </mxCell>
      </root>
    </mxGraphModel>
  </diagram>
</mxfile>
